<?xml version="1.0" encoding="utf-8"?>
<!-- Generator: Adobe Illustrator 18.0.0, SVG Export Plug-In . SVG Version: 6.00 Build 0)  -->
<!DOCTYPE svg PUBLIC "-//W3C//DTD SVG 1.1//EN" "http://www.w3.org/Graphics/SVG/1.1/DTD/svg11.dtd">
<svg version="1.1" id="Layer_1" xmlns="http://www.w3.org/2000/svg" xmlns:xlink="http://www.w3.org/1999/xlink" x="0px" y="0px"
	 viewBox="0 0 500 500" enable-background="new 0 0 500 500" xml:space="preserve">
<g>
	<g>
		<rect x="241.3" y="347.9" fill="#FFFFFF" width="13.3" height="53.2"/>
	</g>
	<g>
		<path fill="#FFFFFF" d="M407.4,407.7h-319c-3.7,0-6.6-3-6.6-6.6s3-6.6,6.6-6.6h319c3.7,0,6.6,3,6.6,6.6S411.1,407.7,407.4,407.7z"
			/>
	</g>
	<circle fill="#47B667" cx="247.9" cy="401" r="26.6"/>
	<g>
		<linearGradient id="SVGID_1_" gradientUnits="userSpaceOnUse" x1="35.3044" y1="209.9083" x2="460.6371" y2="209.9083">
			<stop  offset="0" style="stop-color:#E7E7E7"/>
			<stop  offset="1" style="stop-color:#D3D4D4"/>
		</linearGradient>
		<path fill="url(#SVGID_1_)" d="M398,189.8c0.4-3.6,0.6-7.4,0.6-11.1c0-58.7-47.6-106.3-106.3-106.3c-34.8,0-65.8,16.8-85.1,42.6
			c-9.9-4.4-20.8-6.8-32.3-6.8c-44,0-79.8,35.7-79.8,79.8c0,0.8,0,1.7,0.1,2.5c-34.4,8.8-59.9,40.1-59.9,77.3
			c0,44,35.7,79.8,79.8,79.8h265.3v0c0.2,0,0.4,0,0.6,0c44,0,79.8-35.7,79.8-79.8C460.6,229.5,433.8,197.7,398,189.8z"/>
	</g>
</g>
</svg>
