<?xml version="1.0" encoding="utf-8"?>
<!-- Generator: Adobe Illustrator 18.0.0, SVG Export Plug-In . SVG Version: 6.00 Build 0)  -->
<!DOCTYPE svg PUBLIC "-//W3C//DTD SVG 1.1//EN" "http://www.w3.org/Graphics/SVG/1.1/DTD/svg11.dtd">
<svg version="1.1" id="Layer_1" xmlns="http://www.w3.org/2000/svg" xmlns:xlink="http://www.w3.org/1999/xlink" x="0px" y="0px"
	 viewBox="0 0 500 500" enable-background="new 0 0 500 500" xml:space="preserve">
<g>
	<g>
		<path fill="#48B768" d="M416.5,225c0.5-4.2,0.7-8.3,0.7-12.5c0-66-53.5-119.5-119.5-119.5c-39.2,0-73.8,18.8-95.7,47.8
			c-11-4.8-23.3-7.7-36.2-7.7c-49.3,0.2-89.5,40.3-89.5,89.7c0,1,0,1.8,0,2.8c-38.7,10-67.2,45-67.2,86.8
			c0,49.5,40.2,89.5,89.5,89.5h298l0,0c0.2,0,0.3,0,0.7,0c49.5,0,89.5-40.2,89.5-89.5C486.8,269.7,456.7,233.8,416.5,225z"/>
	</g>
	<g>
		<path fill="#FFFFFF" d="M111.5,359.8h164.2l0.3-59.5h59.2l-59.5,59.5h59.5V136.3L111.5,359.8z M218.7,351v-42.5h39.8L218.7,351z
			 M283.8,284.8v-42.5h39.8L283.8,284.8z"/>
	</g>
</g>
</svg>
