<?xml version="1.0" encoding="utf-8"?>
<!-- Generator: Adobe Illustrator 18.0.0, SVG Export Plug-In . SVG Version: 6.00 Build 0)  -->
<!DOCTYPE svg PUBLIC "-//W3C//DTD SVG 1.1//EN" "http://www.w3.org/Graphics/SVG/1.1/DTD/svg11.dtd">
<svg version="1.1" id="Layer_1" xmlns="http://www.w3.org/2000/svg" xmlns:xlink="http://www.w3.org/1999/xlink" x="0px" y="0px"
	 viewBox="0 0 300 300" enable-background="new 0 0 300 300" xml:space="preserve">
<path fill="#6FBEC4" d="M292.3,40.5c0-5.5-4.5-10.1-10.1-10.1H20.6c-5.5,0-10.1,4.5-10.1,10.1v150.9h281.7V40.5z"/>
<rect x="30.7" y="50.5" fill="#FFFFFF" width="140.9" height="120.7"/>
<g>
	<rect x="166.5" y="45.5" fill="#6FBEC4" width="10.1" height="130.8"/>
</g>
<path fill="#252C3D" d="M282.2,40.5v140.9H20.6V40.5H282.2L282.2,40.5z M282.2,30.4H20.6c-5.5,0-10.1,4.5-10.1,10.1v150.9h281.7
	V40.5C292.3,34.9,287.7,30.4,282.2,30.4L282.2,30.4z"/>
<circle fill="#2B3B49" cx="151.4" cy="211.5" r="5"/>
<path fill="#FFFFFF" d="M10.6,191.4v30.2c0,5.5,4.5,10.1,10.1,10.1h261.6c5.5,0,10.1-4.5,10.1-10.1v-30.2H10.6z"/>
<circle fill="#252C3D" cx="151.4" cy="211.5" r="5"/>
<g>
	<polygon fill="#F0EEEE" points="111.2,271.9 191.7,271.9 182.8,236.6 120,236.6 	"/>
	<polygon fill="#ACAEB3" points="121.2,231.6 120,236.6 182.8,236.6 181.6,231.6 	"/>
</g>
<g>
	<rect x="91" y="261.8" fill="#FFFFFF" width="120.7" height="10.1"/>
</g>
<rect x="20.6" y="40.5" fill="#4B5155" width="261.6" height="140.9"/>
<rect x="39.4" y="94.6" fill="none" width="243.2" height="70.6"/>
<text transform="matrix(1 0 0 1 39.3964 134.9314)" fill="#48B768" font-family="'LucidaGrande'" font-size="52.3167">&lt;HTML&gt;</text>
</svg>
