<?xml version="1.0" encoding="utf-8"?>
<!-- Generator: Adobe Illustrator 18.0.0, SVG Export Plug-In . SVG Version: 6.00 Build 0)  -->
<!DOCTYPE svg PUBLIC "-//W3C//DTD SVG 1.1//EN" "http://www.w3.org/Graphics/SVG/1.1/DTD/svg11.dtd">
<svg version="1.1" id="Layer_1" xmlns="http://www.w3.org/2000/svg" xmlns:xlink="http://www.w3.org/1999/xlink" x="0px" y="0px"
	 viewBox="0 0 500 500" enable-background="new 0 0 500 500" xml:space="preserve">
<rect x="194.3" y="382.2" fill="#FFFFFF" width="111.1" height="83.4"/>
<rect x="33.2" y="382.2" fill="#FFFFFF" width="111.1" height="83.4"/>
<rect x="355.7" y="382.2" fill="#FFFFFF" width="111.1" height="83.4"/>
<rect x="244.8" y="215.3" fill="#5E6E7F" width="10.1" height="166.8"/>
<rect x="83.7" y="293.3" fill="#5E6E7F" width="10.1" height="88.9"/>
<rect x="406.2" y="293.3" fill="#5E6E7F" width="10.1" height="88.9"/>
<rect x="83.2" y="293.6" fill="#5E6E7F" width="333.6" height="10.1"/>
<rect x="238.9" y="287.6" fill="#364A5E" width="22.3" height="22.3"/>
<rect x="77.5" y="287.6" fill="#364A5E" width="22.3" height="22.3"/>
<rect x="400.2" y="287.6" fill="#364A5E" width="22.3" height="22.3"/>
<g>
	<rect x="110.2" y="34.4" fill="#20262D" width="279.4" height="180.9"/>
	<g>
		<rect x="118.6" y="42.6" fill="#73CFF3" width="263.1" height="164.3"/>
		<path opacity="0.25" fill="#E0E1E0" enable-background="new    " d="M315.6,215.3H110.2V34.4h24.5L315.6,215.3z M352,206.9
			L187.6,42.6l-8.2-8.2h-33.7l8.2,8.2l172.8,172.8h33.4L352,206.9z"/>
	</g>
</g>
</svg>
