<?xml version="1.0" encoding="utf-8"?>
<!-- Generator: Adobe Illustrator 18.0.0, SVG Export Plug-In . SVG Version: 6.00 Build 0)  -->
<!DOCTYPE svg PUBLIC "-//W3C//DTD SVG 1.1//EN" "http://www.w3.org/Graphics/SVG/1.1/DTD/svg11.dtd">
<svg version="1.1" id="Layer_1" xmlns="http://www.w3.org/2000/svg" xmlns:xlink="http://www.w3.org/1999/xlink" x="0px" y="0px"
	 viewBox="0 0 500 500" enable-background="new 0 0 500 500" xml:space="preserve">
<g>
	<path fill="#4DB867" d="M215.5,346.9H389h1.1c13.3,0,21.8-10.2,24.1-23.1l33.2-173.9c0.8-4.4-2.6-9.6-7-9.6H170.5L215.5,346.9z"/>
	<path fill="#FFFFFF" d="M389,371.6H194.8L133,89.2H67.7c-7.1,0-12.8,6.6-12.8,13.7s5.8,13.7,12.8,13.7h44.7L169.2,376
		c-12,5.5-20.3,17.2-20.3,31.3c0,19.2,15.5,34.5,34.7,34.5s34.7-16,34.7-35.1c0-3.2-0.5-7.7-1.4-9.5h138.6c-0.8,1.8-1.4,6.2-1.4,9.4
		c0,19.2,15.5,34.9,34.7,34.9s34.7-15.7,34.7-34.9C423.7,387.3,408.2,371.6,389,371.6z"/>
</g>
</svg>
