<?xml version="1.0" encoding="utf-8"?>
<!-- Generator: Adobe Illustrator 18.0.0, SVG Export Plug-In . SVG Version: 6.00 Build 0)  -->
<!DOCTYPE svg PUBLIC "-//W3C//DTD SVG 1.1//EN" "http://www.w3.org/Graphics/SVG/1.1/DTD/svg11.dtd">
<svg version="1.1" id="Layer_1" xmlns="http://www.w3.org/2000/svg" xmlns:xlink="http://www.w3.org/1999/xlink" x="0px" y="0px"
	 viewBox="0 0 500 500" enable-background="new 0 0 500 500" xml:space="preserve">
<g>
	<path fill="#F0BA63" d="M319.5,105.4c-2.7-2.7-6.3-4.1-9.9-4.1c-3.6,0-7.2,1.4-9.9,4.1c-2.7,2.7-4.1,6.3-4.1,9.9v25.9h-1.1v-31.5
		c0-3.6-1.4-7.2-4.1-9.9c-2.7-2.7-6.3-4.1-9.9-4.1c-3.6,0-7.2,1.4-9.9,4.1c-2.7,2.7-4.1,6.3-4.1,9.9v31.5h-1.1V104
		c0-3.6-1.4-7.2-4.1-9.9c-2.7-2.7-6.3-4.1-9.9-4.1c-3.6,0-7.2,1.4-9.9,4.1c-2.7,2.7-4.1,6.3-4.1,9.9v37.1h-1.1v-83
		c0-3.6-1.4-7.2-4.1-9.9c-2.7-2.7-6.3-4.1-9.9-4.1s-7.2,1.4-9.9,4.1c-2.7,2.7-4.1,6.3-4.1,9.9v83v24.8l-21.8-21.8
		c-2.5-2.5-6-4.1-9.9-4.1c-3.9,0-7.4,1.6-9.9,4.1c-2.5,2.5-4.1,6-4.1,9.9c0,3.9,1.6,7.4,4.1,9.9l58.7,58.7h81.2l12.5-23.4
		c1.5-2.8,2.6-5.7,3.4-8.9c0.8-3.2,1.2-6.4,1.2-9.5v-39.6v-25.9C323.6,111.7,322.2,108.1,319.5,105.4z"/>
	<rect x="225.4" y="222.5" fill="#F0BA63" width="81.2" height="14"/>
	<rect x="219.7" y="236.6" fill="#FFFFFF" width="92.6" height="5.1"/>
	<rect x="208.3" y="241.2" fill="#4A5054" width="115.3" height="57.1"/>
	<path fill="#FFFFFF" d="M312.3,259.3c0,3.7-3,6.7-6.7,6.7c-3.7,0-6.7-3-6.7-6.7c0-3.7,3-6.7,6.7-6.7
		C309.3,252.5,312.3,255.5,312.3,259.3z"/>
	<g>
		<rect x="185.9" y="57" fill="#FFFFFF" width="14" height="2.2"/>
		<polygon fill="#FFFFFF" points="195.8,33.2 197.4,31.6 207.3,41.5 205.7,43.1 		"/>
		<rect x="221.2" y="21.7" fill="#FFFFFF" width="2.2" height="14"/>
		<polygon fill="#FFFFFF" points="247.2,31.6 248.8,33.2 238.9,43.1 237.3,41.5 		"/>
		<rect x="244.7" y="57" fill="#FFFFFF" width="14" height="2.2"/>
	</g>
</g>
</svg>
