<?xml version="1.0" encoding="utf-8"?>
<!-- Generator: Adobe Illustrator 18.0.0, SVG Export Plug-In . SVG Version: 6.00 Build 0)  -->
<!DOCTYPE svg PUBLIC "-//W3C//DTD SVG 1.1//EN" "http://www.w3.org/Graphics/SVG/1.1/DTD/svg11.dtd">
<svg version="1.1" id="Layer_1" xmlns="http://www.w3.org/2000/svg" xmlns:xlink="http://www.w3.org/1999/xlink" x="0px" y="0px"
	 viewBox="0 0 500 500" enable-background="new 0 0 500 500" xml:space="preserve">
<g>
	<rect x="29" y="136.5" fill="#FFFFFF" width="440.1" height="272.9"/>
	<g>
		<rect x="29" y="87.7" fill="#BCC4CB" width="440.1" height="48.8"/>
		<circle fill="#597388" cx="420.2" cy="99.9" r="6.1"/>
		<circle fill="#597388" cx="438.5" cy="99.9" r="6.1"/>
		<circle fill="#597388" cx="456.8" cy="99.9" r="6.1"/>
		<rect x="35.1" y="112.1" fill="#8A9AA8" width="36.6" height="18.3"/>
		<rect x="77.8" y="112.1" fill="#EFEDED" width="360.7" height="18.3"/>
		<rect x="444.6" y="112.1" fill="#8A9AA8" width="18.3" height="18.3"/>
	</g>
	<g>
		<rect x="133.5" y="225.2" fill="#47B667" width="224.8" height="77.1"/>
		<g>
			<path fill="#FFFFFF" d="M157.7,285.7v-42.9h8.3v35.6h21.9v7.3H157.7z"/>
			<path fill="#FFFFFF" d="M209.3,286c-3,0-5.8-0.6-8.3-1.8c-2.5-1.2-4.6-2.9-6.4-4.9c-1.8-2-3.2-4.4-4.1-7c-1-2.6-1.4-5.3-1.4-8
				c0-2.9,0.5-5.6,1.5-8.2c1-2.6,2.5-4.9,4.3-6.9c1.8-2,4-3.6,6.5-4.8c2.5-1.2,5.2-1.8,8.1-1.8c3,0,5.8,0.6,8.3,1.9
				c2.5,1.3,4.6,2.9,6.4,5c1.8,2.1,3.1,4.4,4.1,7c1,2.6,1.4,5.3,1.4,8c0,2.9-0.5,5.6-1.5,8.2c-1,2.6-2.4,4.9-4.3,6.9
				c-1.8,2-4,3.6-6.5,4.8C215,285.4,212.3,286,209.3,286z M197.4,264.2c0,1.9,0.3,3.6,0.8,5.4c0.5,1.7,1.3,3.3,2.4,4.6
				c1,1.3,2.3,2.4,3.8,3.2c1.5,0.8,3.2,1.2,5.1,1.2c1.9,0,3.6-0.4,5.1-1.2c1.5-0.8,2.7-1.9,3.7-3.3c1-1.4,1.8-2.9,2.3-4.6
				c0.5-1.7,0.8-3.5,0.8-5.2c0-1.8-0.3-3.6-0.8-5.4s-1.4-3.3-2.4-4.6c-1-1.3-2.3-2.4-3.7-3.2c-1.5-0.8-3.1-1.2-5-1.2
				c-1.9,0-3.6,0.4-5.1,1.2c-1.5,0.8-2.7,1.9-3.7,3.3c-1,1.3-1.8,2.9-2.3,4.6C197.7,260.7,197.4,262.5,197.4,264.2z"/>
			<path fill="#FFFFFF" d="M264.9,280.8c-3.3,3.4-7.1,5.1-11.4,5.1c-2.7,0-5.3-0.6-7.7-1.8c-2.4-1.2-4.5-2.8-6.3-4.9
				c-1.8-2-3.2-4.4-4.2-7c-1-2.7-1.5-5.4-1.5-8.3c0-2.9,0.5-5.7,1.5-8.3c1-2.6,2.5-4.9,4.3-6.8c1.8-2,4-3.5,6.5-4.6s5.2-1.7,8.1-1.7
				c3.9,0,7.2,0.8,10,2.5c2.8,1.7,4.9,4,6.3,6.8l-6.2,4.6c-1-2.1-2.5-3.8-4.3-4.9c-1.8-1.1-3.9-1.7-6.1-1.7c-1.8,0-3.4,0.4-4.8,1.1
				c-1.4,0.8-2.6,1.8-3.7,3.1c-1,1.3-1.8,2.9-2.4,4.6c-0.6,1.7-0.8,3.6-0.8,5.5c0,2,0.3,3.9,0.9,5.6c0.6,1.8,1.4,3.3,2.5,4.6
				c1.1,1.3,2.4,2.3,3.8,3c1.5,0.7,3.1,1.1,4.9,1.1c3.9,0,7.5-2,10.7-5.9v-3h-8.6v-6.1h15.5v22h-6.9V280.8z"/>
			<path fill="#FFFFFF" d="M279,285.7v-42.8h8.3v42.8H279z"/>
			<path fill="#FFFFFF" d="M304.6,258.2v27.5h-8.3v-42.9h6.5l22.3,28.1v-28.1h8.3v42.8h-6.8L304.6,258.2z"/>
		</g>
	</g>
</g>
</svg>
