<?xml version="1.0" encoding="utf-8"?>
<!-- Generator: Adobe Illustrator 18.0.0, SVG Export Plug-In . SVG Version: 6.00 Build 0)  -->
<!DOCTYPE svg PUBLIC "-//W3C//DTD SVG 1.1//EN" "http://www.w3.org/Graphics/SVG/1.1/DTD/svg11.dtd">
<svg version="1.1" id="Layer_1" xmlns="http://www.w3.org/2000/svg" xmlns:xlink="http://www.w3.org/1999/xlink" x="0px" y="0px"
	 viewBox="0 0 500 500" enable-background="new 0 0 500 500" xml:space="preserve">
<g>
	<path fill="#404041" d="M157.8,25.8L127,84.1c0,0-3,4.2-2.7,16.5l1.8,45.2c0,0,0.2,3.7,3.8,7.5l10.7,8.2c0,0,4.6,3.1,7.7,3.1h2.7
		c0,0,0.7,0.2,1.2,0.7l205.3,1c0,0,6,1.1,9.1-5c0,0,6.7-2,7.4-6.9l2.7-61.8c0,0-0.1-2.6-1.2-4.2l-34.4-65.8c0,0-3.3-5.7-14.4-5.6
		l-153.2,0.3C173.6,17.2,161.6,16.5,157.8,25.8z"/>
	<path fill="#404041" d="M139.6,160.8c0,0-10-7.3-10.7-8.7l-2.4-57.2c0,0,0.2-5.8,2.2-9.1l34.1-66.2c0,0,5.1-2.5,12.3-2.5H327
		c0,0,8.7-0.9,11.6,5.1l32.8,63.5c0,0,2.9,4.9,0,6c0,0-1.8,2.7-9.6,2.5l-216.6,2c0,0-8.5,0-8.5,9.4l1.8,48.8c0,0,0.4,5.8,3.3,7.3"/>
	<path fill="#58595B" d="M140.2,107.3l2.4,50.1c0,0-0.7,6.7,14,6.7l204.5-0.9c0,0,12-0.9,13.1-9.3l2.7-62.6c0,0-0.7,8.5-15.6,7.8
		l-214.3,1.5c0,0-6.9,0.2-6.7,5.8S140.2,107.3,140.2,107.3z"/>
	<path fill="#404041" d="M166.4,128.1l0.3,9.8c0,0-0.2,1.6,1.9,1.8h26.7c0,0,2.2-0.3,2.3-2.2v-9.7c0,0-0.2-2-2.9-2H169
		C169,125.8,166.8,126,166.4,128.1z"/>
	<path fill="#404041" d="M207.8,128l0.3,9.9c0,0,0,1.4,1.8,1.4h26.5c0,0,2.3-0.2,2.5-2.3v-9.7c0,0-0.1-2.2-3.8-1.9l-24.8,0
		C210.4,125.4,207.7,125.7,207.8,128z"/>
	<rect x="170.4" y="126.7" fill="#26A9E0" width="23.1" height="3.9"/>
	<rect x="211.9" y="126.4" fill="#26A9E0" width="23.1" height="3.9"/>
	<path fill="#E6E7E8" d="M127,96.2v3.9l8.1,5h1.8c0,0-0.1-1.9,0.4-2.6l-1.4-0.3L127,96.2z"/>
	<path fill="#E6E7E8" d="M130.5,111c0,0-1.1,2.4,1,4.1c0,0,2,0.9,0.5-3.3c0,0-0.3-0.4-0.1-0.6c0,0,0.3-0.1,0.5,0.4
		c0,0,1.6,4.2-0.4,4.4c0,0-2.6-0.5-2.4-4.5c0,0,0.3-1.1,0.8-1.3c0,0,0.5,0.1,0.3,0.6L130.5,111z"/>
	<path fill="#E6E7E8" d="M131,109.9v2.4c0,0,0,0.6,0.2,0.6c0,0,0.3,0.1,0.3-0.6l0-2.5c0,0,0-0.3-0.3-0.3
		C131.3,109.5,131,109.5,131,109.9z"/>
	<g>
		<path fill="#808184" d="M236.1,50.5c1.9,0,3.8,0,5.6,0c1.5,0,3.1,0,4.6,0c0.5,0,1.2,0.1,1.1-0.3c0-0.1-0.8-0.3-1.2-0.3
			c-2.1-0.1-4.1-0.1-6.2-0.2c-0.8,0-1.7-0.2-2.4-0.3c-0.9-0.1-1.3-0.5-1.3-0.9c1.8,0,3.6,0.1,5.4,0.1c1.6,0,3.2,0.1,4.8,0.1
			c1.4,0,2.7,0.1,3.8,0.7c0-0.5,0-0.9,0-1.4c1.2,0,2.2,0.1,3.4,0.1c0,0.5,0,1,0,1.5c0,0.5,0.2,0.6,1.4,0.6c1.5,0,3,0,4.4,0
			c1,0,1.2-0.2,1.2-0.6c0-0.5,0-0.9,0-1.4c1.1,0,2.1,0.1,3.2,0.1c0,0.3,0,0.6,0,0.9c0,0.3,0,0.6,0,0.9c0.5,0,1,0,1.5,0c3,0,6,0,9,0
			c0.4,0,0.8-0.1,1.1-0.2c-0.4-0.1-0.7-0.3-1.1-0.3c-2.3-0.1-4.6-0.1-6.9-0.2c-1.6,0-2.7-0.4-3.5-1c0.4,0,0.6,0,0.8,0
			c3.6,0.1,7.1,0.2,10.7,0.2c1.7,0,3,0.6,3,1.4c0,0.8-1.3,1.5-3,1.6c-3.8,0-7.7,0-11.6,0c0-0.3-0.1-0.5-0.1-0.8
			c-0.3,0.2-0.5,0.2-0.6,0.3c-0.6,0.3-1.4,0.5-2.4,0.5c-2.3,0-4.7,0-7,0c-2,0-2.5-0.1-3.3-1c-0.7,0.9-2.4,1-4.3,1
			c-4.1,0-8.3,0-12.4,0c-0.4,0-0.7,0-1.1,0c0-1.1,0-2.2,0-3.3c1.1,0,2.2,0,3.4,0C236.1,49.2,236.1,49.9,236.1,50.5z"/>
		<path fill="#808184" d="M249.9,46.8c0,0.5,0,0.9,0,1.3c-7.3,0-14.6,0-21.9,0c0.3-0.7,1.8-1.3,3.5-1.3c1.4,0,2.9,0,4.3,0
			c0.1,0,0.1,0,0.3,0c0,0.2,0,0.4,0.1,0.7c0.2-0.1,0.4-0.1,0.5-0.2c0.9-0.4,1.8-0.6,3.1-0.6c3,0,6,0,9,0
			C249.1,46.8,249.4,46.8,249.9,46.8z"/>
		<path fill="#808184" d="M278.6,46.8c0,0.5,0,0.9,0,1.3c-5.9,0-11.8,0-17.7,0c0-0.4,0-0.8,0-1.3c1,0,2.1,0,3.1,0
			c0,0.3,0.1,0.5,0.1,0.9c1.1-0.9,2.7-1,4.5-1C271.9,46.9,275.2,46.8,278.6,46.8z"/>
		<path fill="#808184" d="M222.1,51.8c1.7-1.1,3.4-2.2,5.1-3.3c0.1-0.1,0.4-0.1,0.5-0.1c1.1,0,2.3,0,3.6,0.1
			c-1.2,0.8-2.4,1.5-3.5,2.2c-0.1,0-0.2,0.1-0.2,0.1C225.8,52,225.8,52,222.1,51.8z"/>
		<path fill="#808184" d="M250.4,46.9c1.1,0,2.1,0,3.2,0c0,0.4,0,0.8,0,1.2c-1,0-2.1,0-3.2,0C250.4,47.7,250.4,47.3,250.4,46.9z"/>
	</g>
	<g>
		<g>
			<g>
				<path fill="#78797B" d="M184.1,23.7c-0.2,0-0.6,0.1-1.2,0.1c-1.3,0-2.1-0.3-2.1-0.9c0-0.5,0.9-0.9,2.2-0.9c0.4,0,0.8,0,1.1,0.1
					l-0.2,0.2c-0.2,0-0.5-0.1-0.9-0.1c-1,0-1.5,0.3-1.5,0.6c0,0.4,0.6,0.6,1.4,0.6c0.4,0,0.7,0,0.9-0.1L184.1,23.7z"/>
				<path fill="#78797B" d="M184.9,21.3h0.8v1.1h0c0.1-0.1,0.3-0.2,0.5-0.2c0.2-0.1,0.5-0.1,0.8-0.1c0.6,0,1.5,0.1,1.5,0.7v1h-0.8
					v-1c0-0.3-0.2-0.5-1-0.5c-0.5,0-0.9,0.1-1,0.3c0,0-0.1,0.1-0.1,0.1v1h-0.8L184.9,21.3L184.9,21.3z"/>
				<path fill="#78797B" d="M189.7,22.6c0-0.2,0-0.4,0-0.5h0.7l0,0.3h0c0.2-0.2,0.7-0.4,1.2-0.4c0.1,0,0.1,0,0.2,0v0.3
					c-0.1,0-0.2,0-0.3,0c-0.5,0-0.9,0.2-1,0.4c0,0,0,0.1,0,0.1v0.9h-0.8V22.6z"/>
				<path fill="#78797B" d="M196.2,22.9c0,0.6-1.1,0.9-2.1,0.9c-1.1,0-2-0.3-2-0.9c0-0.6,0.9-0.9,2.1-0.9
					C195.4,22.1,196.2,22.4,196.2,22.9z M192.9,22.9c0,0.4,0.5,0.6,1.3,0.6c0.7,0,1.3-0.3,1.3-0.7c0-0.3-0.4-0.6-1.2-0.6
					C193.3,22.3,192.9,22.6,192.9,22.9z"/>
				<path fill="#78797B" d="M197.2,22.6c0-0.2,0-0.3,0-0.5h0.7l0,0.3h0c0.2-0.2,0.6-0.3,1.3-0.3c0.6,0,1,0.1,1.2,0.3h0
					c0.1-0.1,0.3-0.2,0.5-0.2c0.2-0.1,0.5-0.1,0.9-0.1c0.6,0,1.4,0.1,1.4,0.7v1h-0.7v-0.9c0-0.3-0.3-0.5-0.9-0.5
					c-0.4,0-0.8,0.1-0.9,0.3c0,0-0.1,0.1-0.1,0.2v1h-0.7v-1c0-0.3-0.3-0.5-0.9-0.5c-0.5,0-0.8,0.2-0.9,0.3c0,0-0.1,0.1-0.1,0.1v1
					h-0.7V22.6z"/>
				<path fill="#78797B" d="M204.8,23c0,0.4,0.7,0.6,1.4,0.6c0.5,0,0.9,0,1.2-0.1l0.1,0.2c-0.3,0-0.7,0.1-1.4,0.1
					c-1.3,0-2-0.3-2-0.8c0-0.5,0.7-0.9,2-0.9c1.4,0,1.7,0.5,1.7,0.8c0,0.1,0,0.1,0,0.1L204.8,23L204.8,23z M207,22.8
					c0-0.2-0.2-0.5-1.1-0.5c-0.8,0-1.1,0.3-1.2,0.5H207z"/>
			</g>
		</g>
		<ellipse id="circle47_1_" fill="#FFFFFF" cx="174.4" cy="22.9" rx="5" ry="2"/>
		<path id="path49_1_" fill-opacity="0.1" d="M177.6,23.3c0-0.7-1.4-1.3-3.2-1.3c-1.8,0-3.2,0.6-3.2,1.3h0.9c0-0.5,1-0.9,2.3-0.9
			c1.3,0,2.3,0.4,2.3,0.9"/>
		<ellipse id="circle51_1_" fill-opacity="0.1" cx="174.6" cy="23.1" rx="1.7" ry="0.7"/>
		
			<linearGradient id="circle53_2_" gradientUnits="userSpaceOnUse" x1="-174.5803" y1="-82.5922" x2="-174.5803" y2="-82.5739" gradientTransform="matrix(82 0 0 82 14489.9707 6794.6992)">
			<stop  offset="0" style="stop-color:#81B3DF"/>
			<stop  offset="1" style="stop-color:#075A93"/>
		</linearGradient>
		<ellipse id="circle53_1_" fill="url(#circle53_2_)" cx="174.4" cy="22.9" rx="1.9" ry="0.8"/>
		
			<linearGradient id="path55_2_" gradientUnits="userSpaceOnUse" x1="-27.9571" y1="270.06" x2="-27.9571" y2="271.7296" gradientTransform="matrix(1 0 0 1 202.5 -249.2241)">
			<stop  offset="0" style="stop-color:#EE6B5A"/>
			<stop  offset="1" style="stop-color:#DE2428"/>
		</linearGradient>
		<path id="path55_1_" fill="url(#path55_2_)" d="M178.9,22c-1.3-1-4.3-1.4-6.8-0.9c-0.8,0.2-1.5,0.4-2,0.7l2,1.4
			c-0.4-0.5,0.3-1,1.5-1.2c0.2,0,0.4,0,0.7,0"/>
		
			<linearGradient id="path57_2_" gradientUnits="userSpaceOnUse" x1="-30.9272" y1="274.1299" x2="-29.5249" y2="271.813" gradientTransform="matrix(1 0 0 1 202.5 -249.2241)">
			<stop  offset="0" style="stop-color:#388A42"/>
			<stop  offset="1" style="stop-color:#4CB649"/>
		</linearGradient>
		<path id="path57_1_" fill="url(#path57_2_)" d="M170.1,21.7c-1.6,0.9-0.9,2.2,1.4,2.9c0.7,0.2,1.6,0.3,2.4,0.3l2.1-1.5
			c-0.8,0.4-2.2,0.4-3.2,0.1c-0.3-0.1-0.6-0.3-0.7-0.4"/>
		
			<linearGradient id="path59_2_" gradientUnits="userSpaceOnUse" x1="-25.4492" y1="273.8474" x2="-26.5578" y2="271.1777" gradientTransform="matrix(1 0 0 1 202.5 -249.2241)">
			<stop  offset="0" style="stop-color:#E2AF24"/>
			<stop  offset="0.3" style="stop-color:#FBD10B"/>
		</linearGradient>
		<path id="path59_1_" fill="url(#path59_2_)" d="M174,24.9c2.8,0.1,5.3-0.8,5.5-1.9c0.1-0.4-0.1-0.7-0.5-1.1h-4.6
			c1.3,0,2.3,0.4,2.3,0.9c0,0.2-0.2,0.4-0.5,0.6"/>
		
			<linearGradient id="path61_2_" gradientUnits="userSpaceOnUse" x1="-31.2816" y1="272.3351" x2="-31.2816" y2="270.8673" gradientTransform="matrix(1 0 0 1 202.5 -249.2241)">
			<stop  offset="0" style="stop-color:#000000;stop-opacity:0.15"/>
			<stop  offset="0.3" style="stop-color:#000000;stop-opacity:6.000000e-02"/>
			<stop  offset="1" style="stop-color:#000000;stop-opacity:3.000000e-02"/>
		</linearGradient>
		<path id="path61_1_" fill="url(#path61_2_)" d="M170.1,21.7l2,1.4c-0.2-0.2-0.1-0.4,0.1-0.6L170.1,21.7"/>
		
			<linearGradient id="path63_2_" gradientUnits="userSpaceOnUse" x1="-26.7006" y1="272.4877" x2="-28.2715" y2="274.0871" gradientTransform="matrix(1 0 0 1 202.5 -249.2241)">
			<stop  offset="0" style="stop-color:#000000;stop-opacity:0.15"/>
			<stop  offset="0.3" style="stop-color:#000000;stop-opacity:6.000000e-02"/>
			<stop  offset="1" style="stop-color:#000000;stop-opacity:3.000000e-02"/>
		</linearGradient>
		<path id="path63_1_" fill="url(#path63_2_)" d="M174,24.9l2.1-1.5c-0.3,0.2-0.8,0.3-1.3,0.3L174,24.9"/>
		
			<linearGradient id="path65_2_" gradientUnits="userSpaceOnUse" x1="-26.0678" y1="273.7051" x2="-25.867" y2="271.7223" gradientTransform="matrix(1 0 0 1 202.5 -249.2241)">
			<stop  offset="0" style="stop-color:#000000;stop-opacity:0.15"/>
			<stop  offset="0.3" style="stop-color:#000000;stop-opacity:6.000000e-02"/>
			<stop  offset="1" style="stop-color:#000000;stop-opacity:3.000000e-02"/>
		</linearGradient>
		<path id="path65_1_" fill="url(#path65_2_)" d="M178.9,22h-4.6c0.7,0,1.3,0.1,1.8,0.3L178.9,22"/>
	</g>
</g>
</svg>
