<?xml version="1.0" encoding="utf-8"?>
<!-- Generator: Adobe Illustrator 18.0.0, SVG Export Plug-In . SVG Version: 6.00 Build 0)  -->
<!DOCTYPE svg PUBLIC "-//W3C//DTD SVG 1.1//EN" "http://www.w3.org/Graphics/SVG/1.1/DTD/svg11.dtd">
<svg version="1.1" id="Layer_1" xmlns="http://www.w3.org/2000/svg" xmlns:xlink="http://www.w3.org/1999/xlink" x="0px" y="0px"
	 viewBox="0 0 500 500" enable-background="new 0 0 500 500" xml:space="preserve">
<g>
	<g>
		<polygon fill="#5E6E7F" points="119.2,447.9 111.7,440.1 142.8,401.4 158.2,416.8 		"/>
		<polygon fill="#5E6E7F" points="373.5,447.9 381.3,440.1 350.2,401.4 334.5,416.8 		"/>
	</g>
</g>
<g>
	<g>
		<path fill="#364A5E" d="M387.4,146.9L282.5,86.4l3-5.1c7-12.1,18.4-21.5,32.9-25.4c14.5-3.9,29.3-1.5,41.4,5.4l10.6,6
			c12.1,7,21.5,18.4,25.4,33.3c3.9,14.5,1.5,29.3-5.4,41.4L387.4,146.9z"/>
		<path fill="#364A5E" d="M300.3,87c-1.2,0-2.1-0.3-3-1.2c-2.1-1.8-2.4-4.8-0.9-7c6.3-7.9,14.5-13.3,24.2-15.7
			c12.1-3.3,24.8-1.5,35.7,4.5c2.4,1.5,3.3,4.5,1.8,7s-4.5,3.3-7,1.8c-8.5-4.8-18.4-6-28.1-3.6c-7.6,2.1-14.2,6.3-19,12.4
			C303.3,86.1,301.8,87,300.3,87z"/>
		
			<rect x="326.9" y="116" transform="matrix(0.8663 0.4995 -0.4995 0.8663 105.1197 -149.7859)" fill="#5E6E7F" width="10.9" height="10.9"/>
	</g>
	<g>
		<path fill="#364A5E" d="M210.2,86.1l-104.9,60.5l-3-5.1c-7-12.1-9.4-26.9-5.4-41.4c3.9-14.5,13.3-26,25.4-33.3l10.6-6
			c12.1-7,26.9-9.4,41.4-5.4c14.5,3.9,26,13.3,32.9,25.4L210.2,86.1z"/>
		<path fill="#364A5E" d="M110.5,134.5c-2.1,0-3.9-1.2-4.8-3.3c-3.6-9.4-4.2-19.3-1.5-29c3.3-12.1,10.9-22.4,21.8-28.4
			c2.4-1.5,5.4-0.6,7,1.8c1.5,2.4,0.6,5.4-1.8,7c-8.5,4.8-14.5,13-17.2,22.4c-2.1,7.6-1.5,15.4,1.2,22.7c0.9,2.7-0.3,5.4-3,6.7
			C111.7,134.2,111.1,134.5,110.5,134.5z"/>
		
			<rect x="155.3" y="115.8" transform="matrix(0.8662 -0.4998 0.4998 0.8662 -39.0891 96.5593)" fill="#5E6E7F" width="10.9" height="10.9"/>
	</g>
</g>
<g>
	<rect x="243.2" y="78.3" fill="#5E6E7F" width="6.7" height="22.1"/>
	<path fill="#364A5E" d="M227.2,70.4c0,4.2,3.3,7.6,7.6,7.6h23c4.2,0,7.9-3.3,7.9-7.6v-0.9c0-4.2-3.3-7.9-7.9-7.9h-23
		c-4.2,0-7.6,3.3-7.6,7.9V70.4z"/>
</g>
<circle fill="#364A5E" cx="246.5" cy="272" r="171.7"/>
<path fill="#FFFFFF" d="M395.2,272c0,82.2-66.5,148.7-148.7,148.7S97.8,354.2,97.8,272s66.5-148.7,148.7-148.7
	C328.4,123.3,395.2,189.8,395.2,272z"/>
<path fill="#48B768" d="M246.5,123.3c-55.6,0-104,30.5-129.7,75.9L246.2,272l124.5-81.3C344.4,149.9,298.5,123.3,246.5,123.3z"/>
<rect x="242.3" y="138.1" fill="#293B4D" width="8.5" height="28.4"/>
<rect x="112.3" y="267.8" fill="#293B4D" width="28.7" height="8.2"/>
<rect x="242.3" y="377.5" fill="#293B4D" width="8.5" height="28.7"/>
<rect x="351.7" y="267.8" fill="#293B4D" width="28.7" height="8.2"/>
<g>
	<path fill="#293B4D" d="M315.1,221.5l-71.3,46.2c-2.1,1.5-2.7,4.5-1.5,6.7c1.5,2.1,4.5,2.7,6.7,1.5l71.3-46.2L315.1,221.5z"/>
	<path fill="#293B4D" d="M248.6,267.8l-47.5-26.6l-4.5,8.2l47.5,26.6c2.4,1.2,5.1,0.6,6.3-1.8C251.9,272,251,269.3,248.6,267.8z"/>
	
		<rect x="172.7" y="313.6" transform="matrix(0.2402 -0.9707 0.9707 0.2402 -127.0224 468.6181)" fill="#F3705B" width="126.3" height="3.6"/>
	<path fill="#F3705B" d="M256.5,272c0,5.4-4.5,10-10,10s-10-4.5-10-10c0-5.4,4.5-10,10-10S256.5,266.6,256.5,272z"/>
</g>
<path opacity="0.5" fill="#CDD3DA" enable-background="new    " d="M246.5,123.3c-82.2,0-148.7,66.5-148.7,148.7
	s66.5,148.7,148.7,148.7S395.2,354.2,395.2,272C395.2,189.8,328.4,123.3,246.5,123.3z M246.5,413.5c-78,0-141.5-63.5-141.5-141.8
	c0-78,63.5-141.8,141.5-141.8s141.8,63.5,141.8,141.8C388,350,324.5,413.5,246.5,413.5z"/>
<g>
	<g>
		<polygon fill="#293B4D" points="269.2,151.4 266.5,150.8 268.3,139.9 271,140.2 		"/>
		<polygon fill="#293B4D" points="289.7,157.2 287,156.2 290.9,145.7 293.7,146.6 		"/>
		<polygon fill="#293B4D" points="309.1,166.5 306.7,165 312.1,155.3 314.5,156.6 		"/>
		<polygon fill="#293B4D" points="326.3,178.9 324.2,177.1 331.4,168.3 333.6,170.2 		"/>
		
			<rect x="343.4" y="183.8" transform="matrix(-0.6421 -0.7667 0.7667 -0.6421 420.9439 575.2417)" fill="#293B4D" width="2.7" height="11.2"/>
		
			<rect x="356.3" y="202.2" transform="matrix(-0.5016 -0.8651 0.8651 -0.5016 357.1938 621.4565)" fill="#293B4D" width="2.7" height="11.2"/>
		
			<rect x="365.7" y="222.5" transform="matrix(-0.3415 -0.9399 0.9399 -0.3415 278.0097 650.8807)" fill="#293B4D" width="2.7" height="11.2"/>
		<polygon fill="#293B4D" points="367.4,252.1 367.1,249.4 378,247.2 378.6,250.3 		"/>
		<polygon fill="#293B4D" points="367.1,294.7 367.4,292 378.6,293.8 378,296.8 		"/>
		<polygon fill="#293B4D" points="361.4,315.2 362.3,312.5 372.9,316.5 371.9,319.2 		"/>
		<polygon fill="#293B4D" points="352,334.6 353.5,332.2 363.2,337.9 361.7,340.3 		"/>
		<polygon fill="#293B4D" points="339.6,351.8 341.4,349.7 349.9,357 348.1,359.1 		"/>
		<polygon fill="#293B4D" points="324.2,366.9 326.3,365.1 333.6,373.6 331.4,375.4 		"/>
		<polygon fill="#293B4D" points="306.7,379 309.1,377.5 314.5,387.2 312.1,388.7 		"/>
		<polygon fill="#293B4D" points="287,387.8 289.7,386.9 293.7,397.5 290.9,398.4 		"/>
		<polygon fill="#293B4D" points="266.5,392.9 269.2,392.6 271,403.8 268.3,404.1 		"/>
		<polygon fill="#293B4D" points="223.8,392.6 226.6,393.2 224.4,404.1 221.7,403.8 		"/>
		<polygon fill="#293B4D" points="203,386.9 205.7,387.8 201.8,398.4 199.3,397.5 		"/>
		<polygon fill="#293B4D" points="183.9,377.5 186.3,379 180.6,388.7 178.2,387.2 		"/>
		
			<rect x="162.6" y="364.7" transform="matrix(0.7625 0.647 -0.647 0.7625 278.5195 -18.1587)" fill="#293B4D" width="2.7" height="11.2"/>
		<polygon fill="#293B4D" points="151.6,349.7 153.4,351.8 144.6,359.1 142.8,357 		"/>
		<polygon fill="#293B4D" points="139.5,332.2 140.7,334.6 131,340.3 129.5,337.9 		"/>
		
			<rect x="124.6" y="310.3" transform="matrix(0.3384 0.941 -0.941 0.3384 380.5984 90.5215)" fill="#293B4D" width="2.7" height="11.2"/>
		
			<rect x="118.6" y="288.7" transform="matrix(0.1771 0.9842 -0.9842 0.1771 388.3623 124.1354)" fill="#293B4D" width="2.7" height="11.2"/>
		<polygon fill="#293B4D" points="125.9,249.4 125.3,252.1 114.1,250.3 114.7,247.2 		"/>
		<polygon fill="#293B4D" points="131.6,228.8 130.7,231.2 120.2,227.6 121.1,224.9 		"/>
		
			<rect x="133.8" y="202.3" transform="matrix(-0.4998 0.8661 -0.8661 -0.4998 382.7393 194.8018)" fill="#293B4D" width="2.7" height="11.2"/>
		<polygon fill="#293B4D" points="153.4,191.9 151.6,194 142.8,187.1 144.6,184.7 		"/>
		<polygon fill="#293B4D" points="168.5,177.1 166.4,178.9 159.1,170.2 161.3,168.3 		"/>
		<polygon fill="#293B4D" points="186.3,165 183.9,166.5 178.2,156.6 180.6,155.3 		"/>
		<polygon fill="#293B4D" points="205.7,156.2 203,157.2 199.3,146.6 201.8,145.7 		"/>
		<polygon fill="#293B4D" points="226.6,150.8 223.8,151.4 221.7,140.2 224.4,139.9 		"/>
	</g>
</g>
</svg>
