<?xml version="1.0" encoding="utf-8"?>
<!-- Generator: Adobe Illustrator 18.0.0, SVG Export Plug-In . SVG Version: 6.00 Build 0)  -->
<!DOCTYPE svg PUBLIC "-//W3C//DTD SVG 1.1//EN" "http://www.w3.org/Graphics/SVG/1.1/DTD/svg11.dtd">
<svg version="1.1" id="Layer_1" xmlns="http://www.w3.org/2000/svg" xmlns:xlink="http://www.w3.org/1999/xlink" x="0px" y="0px"
	 viewBox="0 0 500 500" enable-background="new 0 0 500 500" xml:space="preserve">
<g>
	<rect x="50.7" y="187.1" fill="#4A5054" width="396.6" height="254.3"/>
	<rect x="50.7" y="420" fill="#47B667" width="396.6" height="21.3"/>
	<rect x="50.7" y="78.1" fill="#47B667" width="56.6" height="109"/>
	<rect x="107.4" y="78.1" fill="#F6F7F7" width="56.6" height="109"/>
	<rect x="164.1" y="78.1" fill="#47B667" width="56.6" height="109"/>
	<rect x="220.7" y="78.1" fill="#F6F7F7" width="56.6" height="109"/>
	<rect x="277.4" y="78.1" fill="#47B667" width="56.6" height="109"/>
	<rect x="334" y="78.1" fill="#F6F7F7" width="56.6" height="109"/>
	<rect x="390.7" y="78.1" fill="#47B667" width="56.6" height="109"/>
	<path fill="#3A9852" d="M107.4,187.1c0,17.2-12.7,31.2-28.4,31.2s-28.4-13.9-28.4-31.2C66.8,187.1,90.5,187.1,107.4,187.1z"/>
	<path fill="#DDDDDC" d="M164.1,187.1c0,17.2-12.7,31.2-28.4,31.2s-28.4-13.9-28.4-31.2C123.4,187.1,147.3,187.1,164.1,187.1z"/>
	<path fill="#3A9852" d="M220.7,187.1c0,17.2-12.7,31.2-28.4,31.2S164,204.3,164,187.1C180.1,187.1,203.9,187.1,220.7,187.1z"/>
	<path fill="#DDDDDC" d="M277.4,187.1c0,17.2-12.7,31.2-28.4,31.2s-28.4-13.9-28.4-31.2C236.8,187.1,260.5,187.1,277.4,187.1z"/>
	<path fill="#3A9852" d="M334,187.1c0,17.2-12.7,31.2-28.4,31.2s-28.4-13.9-28.4-31.2C293.4,187.1,317.2,187.1,334,187.1z"/>
	<path fill="#DDDDDC" d="M390.7,187.1c0,17.2-12.7,31.2-28.4,31.2c-15.7,0-28.4-13.9-28.4-31.2C350.1,187.1,373.8,187.1,390.7,187.1
		z"/>
	<path fill="#3A9852" d="M447.3,187.1c0,17.2-12.7,31.2-28.4,31.2s-28.4-13.9-28.4-31.2C406.7,187.1,430.5,187.1,447.3,187.1z"/>
	<rect x="50.7" y="78.1" fill="#3A9852" width="56.6" height="11.6"/>
	<rect x="107.4" y="78.1" fill="#DDDDDC" width="56.6" height="11.6"/>
	<rect x="164.1" y="78.1" fill="#3A9852" width="56.6" height="11.6"/>
	<rect x="220.7" y="78.1" fill="#DDDDDC" width="56.6" height="11.6"/>
	<rect x="277.4" y="78.1" fill="#3A9852" width="56.6" height="11.6"/>
	<rect x="334" y="78.1" fill="#DDDDDC" width="56.6" height="11.6"/>
	<rect x="390.7" y="78.1" fill="#3A9852" width="56.6" height="11.6"/>
	<rect x="79.1" y="239.3" fill="#1F262D" width="107.8" height="202"/>
	<rect x="220.7" y="239.3" fill="#1F262D" width="198.3" height="131.5"/>
	<rect x="230.2" y="249.8" fill="#F6F7F7" width="179.2" height="110.4"/>
	<rect x="230.2" y="346.6" fill="#3A9852" width="179.2" height="13.7"/>
	<rect x="88.7" y="249.8" fill="#F6F7F7" width="88.7" height="81.4"/>
	<rect x="88.7" y="341.8" fill="#F6F7F7" width="88.7" height="88.9"/>
</g>
</svg>
