<?xml version="1.0" encoding="utf-8"?>
<!-- Generator: Adobe Illustrator 18.0.0, SVG Export Plug-In . SVG Version: 6.00 Build 0)  -->
<!DOCTYPE svg PUBLIC "-//W3C//DTD SVG 1.1//EN" "http://www.w3.org/Graphics/SVG/1.1/DTD/svg11.dtd">
<svg version="1.1" id="Layer_1" xmlns="http://www.w3.org/2000/svg" xmlns:xlink="http://www.w3.org/1999/xlink" x="0px" y="0px"
	 viewBox="0 0 300 300" enable-background="new 0 0 300 300" xml:space="preserve">
<g>
	<path fill="#FFD162" d="M183.9,109.4c-1.8-1.8-4.1-2.6-6.4-2.6c-2.3,0-4.6,0.9-6.3,2.6c-1.8,1.8-2.6,4.1-2.6,6.4v16.6h-0.7v-20.2
		c0-2.3-0.9-4.6-2.6-6.4c-1.8-1.8-4.1-2.6-6.4-2.6c-2.3,0-4.6,0.9-6.4,2.6c-1.8,1.8-2.6,4.1-2.6,6.4v20.2h-0.7v-23.8
		c0-2.3-0.9-4.6-2.6-6.4c-1.8-1.7-4.1-2.6-6.4-2.6c-2.3,0-4.6,0.9-6.4,2.6c-1.7,1.8-2.6,4.1-2.6,6.4v23.8h-0.7V79
		c0-2.3-0.9-4.6-2.6-6.4c-1.8-1.8-4.1-2.6-6.4-2.6c-2.3,0-4.6,0.9-6.4,2.6c-1.7,1.8-2.6,4.1-2.6,6.4v53.3v15.9l-14-14
		c-1.6-1.6-3.9-2.6-6.4-2.6c-2.5,0-4.7,1-6.4,2.6c-1.6,1.6-2.6,3.9-2.6,6.3c0,2.5,1,4.7,2.6,6.4l37.7,37.7h52.1l8-15
		c0.9-1.8,1.7-3.7,2.2-5.7c0.5-2,0.7-4.1,0.7-6.1v-25.4v-16.6C186.5,113.4,185.6,111.1,183.9,109.4z"/>
	<rect x="123.4" y="184.6" fill="#FFD162" width="52.1" height="9"/>
	<g>
		<rect x="119.8" y="193.6" fill="#FFFFFF" width="59.5" height="3.3"/>
		<rect x="112.5" y="196.6" fill="#364A5E" width="74" height="36.7"/>
		<path fill="#FFFFFF" d="M179.2,208.2c0,2.4-1.9,4.3-4.3,4.3c-2.4,0-4.3-1.9-4.3-4.3c0-2.4,1.9-4.3,4.3-4.3
			C177.3,203.8,179.2,205.8,179.2,208.2z"/>
	</g>
	<g>
		<rect x="98.1" y="78.3" fill="#FFFFFF" width="9" height="1.4"/>
		<polygon fill="#FFFFFF" points="104.5,63 105.5,62 111.8,68.4 110.8,69.4 		"/>
		<rect x="120.8" y="55.7" fill="#FFFFFF" width="1.4" height="9"/>
		<polygon fill="#FFFFFF" points="137.5,62 138.5,63 132.1,69.4 131.1,68.4 		"/>
		<rect x="135.8" y="78.3" fill="#FFFFFF" width="9" height="1.4"/>
	</g>
</g>
</svg>
