<?xml version="1.0" encoding="utf-8"?>
<!-- Generator: Adobe Illustrator 18.0.0, SVG Export Plug-In . SVG Version: 6.00 Build 0)  -->
<!DOCTYPE svg PUBLIC "-//W3C//DTD SVG 1.1//EN" "http://www.w3.org/Graphics/SVG/1.1/DTD/svg11.dtd">
<svg version="1.1" id="Layer_1" xmlns="http://www.w3.org/2000/svg" xmlns:xlink="http://www.w3.org/1999/xlink" x="0px" y="0px"
	 viewBox="0 0 500 500" enable-background="new 0 0 500 500" xml:space="preserve">
<path fill="#424143" d="M412.3,254.4c-12.3-6.2-6.4-19-4.8-22.3c14.5-12.6,24.4-35.9,24.4-59.8c0-35.1-21.4-58.2-47.7-58.2
	c-26.5,0-47.7,23.1-47.7,58.2c0,23.9,9.9,47.2,24.4,59.8c1.6,3.2,7.8,16.4-4.8,22.3c-45,10.5-78,45.3-78,81.8c0,0.3,0,0.8,0,1.1
	c0,0.3,0,0.3,0,0.5c0,21.4,47.5,41.6,106.2,41.6s106.2-20.1,106.2-41.6c0-0.3,0-0.3,0-0.5c0-0.3,0-0.8,0-1.1
	C490.3,299.5,457.4,264.9,412.3,254.4z"/>
<path fill="#424143" d="M144,260.9c-12.3-6.2-6.4-19-4.8-22.3c14.5-12.6,24.4-35.9,24.4-59.8c0-35.1-21.4-58.2-47.7-58.2
	c-26.5,0-47.7,23.1-47.7,58.2c0,23.9,9.9,47.2,24.4,59.8c1.6,3.2,7.8,16.4-4.8,22.3c-45,10.5-78,45.3-78,81.8c0,0.3,0,0.8,0,1.1
	c0,0.3,0,0.3,0,0.5c0,21.4,47.5,41.6,106.2,41.6S222,365.7,222,344.2c0-0.3,0-0.3,0-0.5c0-0.3,0-0.8,0-1.1
	C222.3,305.9,189,271.3,144,260.9z"/>
<polygon fill="#E6E7E8" points="118,281 130.8,307.2 159.8,311.3 138.9,331.6 144,360.6 118,346.9 92.2,360.6 97.1,331.6 
	76.4,311.3 105.1,307.2 "/>
<path fill="#E6E7E8" d="M403.7,300.5h-0.5v-7.8c0-12.6-9.7-22.8-21.4-22.8h-0.3c-11.8,0-21.4,10.2-21.4,22.8v7.8h-0.5
	c-4.6,0-8,3.8-8,8v33.5c0,4.6,3.8,8,8,8h44c4.6,0,8-3.8,8-8v-33.5C411.8,304,408.3,300.5,403.7,300.5z M370,292.5
	c0-7,5.1-12.6,11.5-12.6h0.3c6.4,0,11.5,5.6,11.5,12.6v7.8H370L370,292.5L370,292.5z M384.4,327.3v6.2c0,1.6-1.3,2.7-2.7,2.7
	c-1.6,0-2.7-1.3-2.7-2.7v-6.2c-2.4-1.1-4-3.5-4-6.2c0-3.8,2.9-6.7,6.7-6.7s6.7,2.9,6.7,6.7C388.5,323.9,386.9,326.3,384.4,327.3z"/>
</svg>
