<?xml version="1.0" encoding="utf-8"?>
<!-- Generator: Adobe Illustrator 18.0.0, SVG Export Plug-In . SVG Version: 6.00 Build 0)  -->
<!DOCTYPE svg PUBLIC "-//W3C//DTD SVG 1.1//EN" "http://www.w3.org/Graphics/SVG/1.1/DTD/svg11.dtd">
<svg version="1.1" id="logo" xmlns="http://www.w3.org/2000/svg" xmlns:xlink="http://www.w3.org/1999/xlink" x="0px" y="0px"
	 viewBox="0 0 400 200" enable-background="new 0 0 400 200" xml:space="preserve">
<g>
	<path fill="#FFFFFF" d="M217.8,122.2c-0.2-1.4-0.2-3.2-0.2-5.3v-16.2c0-10.4-3.3-16.7-10.1-19c-1.8-0.6-3.8-1.2-6.2-1.7V80
		c2-0.5,3.7-1.1,5.2-1.7c5-2,8.2-5.9,9.7-11.6c0.9-3.4,1.3-7,1.3-10.9c-0.1-10-2.8-17-8.1-21c-4.2-3.2-11.6-4.9-22.4-4.9h-27.7V128
		h20v-40h6c1.7,0,3.3,0.2,4.9,0.5c5,1,7.5,5.1,7.5,12.3v16.2c0,1.7,0.1,3.7,0.5,6.1l0.8,4.9h20.1C218.4,125.5,218,123.6,217.8,122.2
		z M194.6,70.2c-2,1.9-5.1,2.9-9.4,2.9h-6.1V44.6h5.9c1.6,0,3.1,0.1,4.5,0.3c4,0.6,6.4,3.1,7.3,7.4c0.4,2.1,0.6,4.2,0.6,6.5
		C197.4,64.6,196.5,68.4,194.6,70.2z"/>
</g>
<rect x="229.2" y="29.7" fill="#FFFFFF" width="20" height="98.3"/>
<path fill="#FFFFFF" d="M281.4,97v3.6c-0.2,9.3,3.4,14,10.8,14c6,0,9.7-2.5,10.9-7.8c0.4-1.4,0.6-2.9,0.6-4.4c0-2.2-0.4-4.1-1.3-5.6
	c-0.8-1.3-1.9-2.5-3.3-3.7l-3-2l-16.9-9.9c-3.1-1.8-5.8-3.7-8.2-5.7c-2.9-2.4-4.9-4.9-6.1-7.6c-1.4-3.3-2.2-7.2-2.2-11.9
	c0-18.4,10.2-27.6,30.7-27.6c16.7,0,26.1,5.9,28.2,17.6c0.6,3.1,0.8,6.4,0.8,9.8v4.1h-20v-3.3c0-2.1-0.2-4.1-0.4-6
	c-0.6-5-3.7-7.5-9.3-7.5c-6.5-0.1-9.8,3.4-10.1,10.6c0,2.6,0.4,4.6,1.4,6.1c0.9,1.4,2.5,2.9,4.9,4.5l4.2,2.7l16.6,9.9
	c2.2,1.4,4.2,2.8,6.1,4.4c2.7,2.4,4.6,4.8,5.6,7.4c1.3,3.3,2,7.3,2,12.1c0,14.3-5.5,23.1-16.6,26.4c-4.7,1.5-9.8,2.2-15.3,2.2
	c-5.3,0-10.2-0.6-14.7-2c-8.6-2.4-13.5-8-14.9-16.7c-0.6-3.1-0.8-6.5-0.8-10.3V97H281.4z"/>
<polygon fill="#FFFFFF" points="387.3,29.7 387.3,44.6 358.2,44.6 358.2,70 386.3,70 386.3,84.9 358.2,84.9 358.2,113.1 
	388.2,113.1 388.2,128 338.2,128 338.2,29.7 "/>
<polygon fill="#01C965" points="159.2,140.7 166,140.7 170.8,163.3 170.9,163.3 176.3,140.7 182.7,140.7 174.5,171.7 166.9,171.7 
	"/>
<rect x="208.6" y="140.7" fill="#01C965" width="6.5" height="31"/>
<path fill="#01C965" d="M250.1,172.2c-8,0-9.5-4.7-9.2-10.1h6.5c0,3,0.1,5.5,3.7,5.5c2.2,0,3.3-1.4,3.3-3.5
	c0-5.6-13.1-5.9-13.1-15.2c0-4.9,2.3-8.7,10.2-8.7c6.3,0,9.5,2.8,9,9.3h-6.3c0-2.3-0.4-4.7-3-4.7c-2.1,0-3.4,1.2-3.4,3.3
	c0,5.9,13.1,5.4,13.1,15.1C260.9,171.3,255,172.2,250.1,172.2z"/>
<rect x="286.6" y="140.7" fill="#01C965" width="6.5" height="31"/>
<g>
	<path fill="#01C965" d="M328.9,140.2c-10.7,0-10.7,7.8-10.7,16c0,8.1,0,16,10.7,16c10.7,0,10.7-7.9,10.7-16
		C339.7,148,339.7,140.2,328.9,140.2z M328.9,167.6c-3.7,0-4.1-3.4-4.1-11.4c0-8,0.5-11.4,4.1-11.4c3.7,0,4.1,3.4,4.1,11.4
		C333.1,164.2,332.6,167.6,328.9,167.6z"/>
</g>
<polygon fill="#01C965" points="365,171.7 365,140.7 373.8,140.7 382,162.2 382.1,162.2 382.1,140.7 388.2,140.7 388.2,171.7 
	379.6,171.7 371.1,149 371.1,149 371.1,171.7 "/>
<g>
	<path fill="#01C965" d="M5.6,171.7h105.7l0.2-38.3h38.1l-38.3,38.3h38.3v-144L5.6,171.7z M74.6,166v-27.3l25.7,0L74.6,166z
		 M116.5,123.4V96l25.7,0L116.5,123.4z"/>
</g>
</svg>
